<?xml version="1.0" encoding="UTF-8"?>
<!DOCTYPE svg PUBLIC "-//W3C//DTD SVG 1.1//EN" "http://www.w3.org/Graphics/SVG/1.1/DTD/svg11.dtd">
<!-- Creator: CorelDRAW 2020 (64-Bit) -->
<svg xmlns="http://www.w3.org/2000/svg" xml:space="preserve" width="76mm" height="107mm" version="1.1" style="shape-rendering:geometricPrecision; text-rendering:geometricPrecision; image-rendering:optimizeQuality; fill-rule:evenodd; clip-rule:evenodd"
viewBox="0 0 7600 10700"
 xmlns:xlink="http://www.w3.org/1999/xlink"
 xmlns:xodm="http://www.corel.com/coreldraw/odm/2003">
 <defs>
  <style type="text/css">
   <![CDATA[
    .str0 {stroke:#B39A7C;stroke-width:141.11;stroke-miterlimit:22.9256}
    .str4 {stroke:#B39A7C;stroke-width:26.46;stroke-miterlimit:22.9256}
    .str2 {stroke:#B39A7C;stroke-width:423.33;stroke-miterlimit:22.9256}
    .str1 {stroke:#B39A7C;stroke-width:20;stroke-miterlimit:22.9256}
    .str3 {stroke:#EFE3D5;stroke-width:20;stroke-miterlimit:22.9256}
    .fil0 {fill:none}
    .fil1 {fill:#B39A7C}
    .fil2 {fill:#EFE3D5}
   ]]>
  </style>
 </defs>
 <g id="Слой_x0020_1">
  <metadata id="CorelCorpID_0Corel-Layer"/>
  <path class="fil0 str0" d="M38274.25 2593.85c-707.33,1687.87 -2019.33,2976.35 -3766.98,3519.44 -3265.29,1014.72 -6830.21,-301.73 -7844.94,-3567.03"/>
  <circle class="fil1 str1" cx="32490.63" cy="-3049.91" r="912.81"/>
  <path class="fil0 str2" d="M37661.44 -4207.41c-253.74,-298.31 -533.04,-573.89 -834.73,-823.61 -2862.14,-2369.07 -7102.88,-1969.36 -9471.95,892.78"/>
  <path class="fil1 str1" d="M33086.02 1368.7c68.35,-149.93 136.7,-299.86 229.3,-488.37 92.61,-188.52 209.47,-415.62 354.99,-654.85 145.52,-239.23 319.71,-490.58 521.45,-724.3 201.75,-233.72 431.05,-449.79 684.61,-666.97 253.56,-217.18 531.38,-435.46 800.37,-632.79 268.99,-197.34 529.17,-373.73 798.16,-513.74 268.99,-140.01 546.81,-243.63 744.14,-320.8 197.34,-77.17 314.19,-127.89 529.16,-186.32 214.98,-58.43 528.07,-124.57 808.09,-195.12 280.02,-70.56 526.96,-145.53 735.32,-240.33 208.36,-94.81 378.14,-209.47 531.37,-327.43 153.24,-117.96 289.95,-239.23 412.32,-384.75 122.37,-145.52 230.4,-315.3 311.98,-442.07 81.58,-126.78 136.71,-210.57 189.62,-292.15 52.92,-81.58 103.63,-160.95 142.21,-243.63 38.59,-82.69 65.05,-168.68 57.33,-194.03 -7.71,-25.36 -49.61,9.91 -101.43,63.93 -51.81,54.02 -113.54,126.79 -202.84,205.06 -89.3,78.27 -206.15,162.06 -370.42,261.28 -164.26,99.21 -375.92,213.87 -583.18,308.68 -207.26,94.81 -410.11,169.77 -619.58,227.1 -209.46,57.33 -425.53,97.01 -622.87,138.91 -197.33,41.89 -375.93,85.98 -599.72,154.33 -223.79,68.35 -492.79,160.96 -735.33,252.46 -242.53,91.5 -458.6,181.9 -668.07,277.81 -209.46,95.91 -412.3,197.34 -610.74,311.99 -198.44,114.65 -392.47,242.54 -597.53,390.27 -205.05,147.72 -421.12,315.29 -600.82,469.63 -179.7,154.34 -323.01,295.45 -435.46,428.85 -112.45,133.39 -194.03,259.07 -282.23,390.26 -88.19,131.19 -182.99,267.89 -287.72,452 -104.73,184.1 -219.39,415.61 -303.18,647.12 -83.78,231.51 -136.69,463.03 -169.77,717.69 -33.07,254.66 -46.3,532.47 -59.53,810.28z"/>
  <path class="fil2 str3" d="M33039.67 5211.83c26.46,-132.29 52.91,-264.58 98.11,-443.18 45.2,-178.59 109.14,-403.48 174.18,-607.43 65.05,-203.95 131.19,-386.96 223.79,-578.78 92.61,-191.82 211.68,-392.47 345.07,-595.31 133.4,-202.85 281.12,-407.91 447.59,-590.91 166.47,-183 351.67,-343.96 537.98,-492.78 186.31,-148.83 373.73,-285.54 566.65,-433.26 192.93,-147.73 391.37,-306.48 572.17,-488.38 180.8,-181.9 343.96,-386.95 490.58,-609.64 146.63,-222.69 276.71,-463.02 346.16,-599.72 69.46,-136.7 78.27,-169.78 39.68,-214.98 -38.58,-45.2 -124.56,-102.52 -245.83,-163.15 -121.27,-60.64 -277.81,-124.58 -383.65,-168.67 -105.83,-44.1 -160.96,-68.36 -222.7,-34.18 -61.73,34.17 -130.08,126.78 -257.96,305.37 -127.88,178.59 -315.3,443.18 -526.97,712.17 -211.66,268.99 -447.58,542.4 -631.69,754.07 -184.1,211.66 -316.39,361.59 -440.97,498.29 -124.57,136.7 -241.43,260.18 -331.83,357.19 -90.4,97.01 -154.34,167.57 -217.18,255.76 -62.84,88.19 -124.57,194.03 -192.93,332.94 -68.35,138.9 -143.31,310.88 -218.28,499.4 -74.96,188.51 -149.93,393.57 -198.44,558.94 -48.5,165.36 -70.55,291.03 -88.19,469.63 -17.64,178.59 -30.86,410.1 -33.07,600.82 -2.2,190.72 6.61,340.65 33.07,446.48 26.46,105.84 70.56,167.57 114.66,229.31z"/>
  <path class="fil2 str3" d="M36611.5 -1250.64c709.97,-377.03 1419.93,-754.07 1795.86,-946.99 375.93,-192.93 417.82,-201.74 545.7,-217.17 127.88,-15.44 341.76,-37.49 540.19,-62.84 198.44,-25.36 381.45,-54.03 554.53,-88.2 173.08,-34.18 336.24,-73.86 501.6,-125.67 165.37,-51.82 332.94,-115.76 460.82,-183.01 127.88,-67.25 216.08,-137.8 283.32,-190.72 67.25,-52.92 113.56,-88.2 153.24,-117.96 39.69,-29.77 72.77,-54.03 105.84,-78.28 -50.71,136.7 -101.43,273.41 -156.55,401.29 -55.12,127.88 -114.65,246.95 -176.39,352.78 -61.73,105.83 -125.67,198.44 -206.15,310.89 -80.48,112.44 -177.49,244.74 -287.74,366.01 -110.24,121.26 -233.71,231.5 -367.11,335.13 -133.39,103.63 -276.7,200.64 -446.48,294.35 -169.77,93.71 -366.01,184.1 -549.01,252.45 -183,68.35 -352.78,114.66 -612.95,137.81 -260.17,23.15 -610.75,23.15 -897.38,-5.51 -286.63,-28.67 -509.33,-85.99 -705.56,-163.16 -196.23,-77.17 -366.01,-174.19 -535.78,-271.2z"/>
  <path class="fil2 str3" d="M37092.73 603.13c145.52,-324.12 291.05,-648.23 436.57,-972.35 92.6,8.82 185.21,17.64 309.78,22.05 124.57,4.41 281.12,4.41 447.58,5.51 166.47,1.1 342.86,3.31 590.91,-39.68 248.05,-43 567.75,-131.2 783.83,-219.39 216.08,-88.19 328.52,-176.39 403.48,-233.71 74.97,-57.33 112.46,-83.79 126.79,-52.92 14.33,30.87 5.51,119.06 -22.05,208.36 -27.56,89.3 -73.87,179.69 -138.91,285.53 -65.04,105.83 -148.83,227.1 -237.02,335.14 -88.19,108.04 -180.8,202.84 -275.61,285.53 -94.81,82.68 -191.82,153.23 -309.78,217.18 -117.96,63.94 -256.87,121.26 -413.42,163.16 -156.54,41.89 -330.72,68.34 -535.78,79.37 -205.05,11.02 -440.97,6.62 -640.51,-9.91 -199.54,-16.54 -362.7,-45.21 -525.86,-73.87z"/>
  <path class="fil2 str3" d="M36649.56 1158.74c83.79,22.05 167.57,44.1 282.22,66.15 114.66,22.05 260.18,44.09 424.44,58.42 164.26,14.33 347.27,20.95 557.83,15.44 210.57,-5.52 448.69,-23.15 660.36,-40.79 211.67,-17.64 396.88,-35.28 533.58,-68.35 136.7,-33.08 224.9,-81.58 255.76,-84.89 30.87,-3.31 4.41,38.59 -50.71,108.04 -55.12,69.45 -138.91,166.47 -233.72,270.1 -94.8,103.62 -200.64,213.87 -293.25,307.58 -92.6,93.7 -171.97,170.87 -261.27,229.3 -89.3,58.43 -188.51,98.11 -300.96,132.29 -112.45,34.17 -238.13,62.84 -401.29,78.28 -163.16,15.43 -363.8,17.63 -561.14,-6.62 -197.33,-24.25 -391.36,-74.97 -584.29,-125.68 -192.92,-50.71 -384.75,-101.42 -520.35,-143.31 -135.59,-41.89 -214.97,-74.97 -294.34,-108.04 262.38,-229.31 524.75,-458.61 787.13,-687.92z"/>
  <path class="fil2 str3" d="M34883.47 2589.7c114.65,-72.76 315.3,-196.23 515.94,-319.7 121.27,44.1 242.53,88.19 381.44,134.5 138.91,46.3 295.45,94.8 472.94,146.62 177.5,51.81 375.93,106.93 550.11,143.31 174.19,36.38 324.12,54.02 457.51,60.64 133.4,6.61 250.26,2.2 304.28,23.15 54.02,20.94 45.2,67.25 0,114.66 -45.2,47.4 -126.78,95.9 -229.31,149.92 -102.52,54.02 -226,113.55 -345.06,160.96 -119.06,47.4 -233.72,82.68 -347.27,101.42 -113.55,18.74 -225.99,20.95 -347.26,13.23 -121.27,-7.72 -251.35,-25.36 -406.8,-70.56 -155.44,-45.2 -336.24,-117.96 -499.4,-185.21 -163.16,-67.25 -308.68,-128.98 -418.93,-187.41 -110.24,-58.43 -185.2,-113.55 -260.17,-168.67 28.66,-22.05 57.33,-44.1 171.98,-116.86z"/>
  <path class="fil2 str3" d="M34003.73 3898.29c90.4,-14.33 227.1,-60.64 373.72,-116.86 146.63,-56.22 303.17,-122.37 422.23,-173.08 119.07,-50.71 200.65,-85.99 212.77,-126.78 12.13,-40.79 -45.19,-87.09 -101.42,-122.37 -56.22,-35.28 -111.35,-59.53 -190.73,-104.73 -79.37,-45.2 -182.99,-111.35 -245.83,-153.24 -62.84,-41.89 -84.89,-59.53 -130.09,-16.53 -45.2,42.99 -113.55,146.62 -191.82,268.99 -78.27,122.37 -166.47,263.48 -222.7,353.88 -56.22,90.4 -80.47,130.08 -70.55,158.75 9.92,28.66 54.02,46.3 144.42,31.97z"/>
  <circle class="fil1 str1" cx="32490.63" cy="-1505.13" r="393.57"/>
  <path class="fil1 str1" d="M32658.05 -1151.12c-50.78,2028.44 -101.57,4056.88 -152.35,6085.32 -60.83,-2026.95 -121.65,-4053.89 -182.48,-6080.84 111.61,-1.49 223.22,-2.99 334.83,-4.48z"/>
  <path class="fil1 str1" d="M31902.81 1323.99c-68.35,-149.93 -136.7,-299.86 -229.3,-488.37 -92.61,-188.52 -209.47,-415.62 -354.99,-654.85 -145.52,-239.23 -319.71,-490.58 -521.45,-724.3 -201.75,-233.72 -431.05,-449.79 -684.61,-666.97 -253.56,-217.18 -531.38,-435.46 -800.37,-632.79 -268.99,-197.34 -529.17,-373.73 -798.16,-513.74 -268.99,-140.01 -546.81,-243.63 -744.14,-320.8 -197.34,-77.17 -314.19,-127.89 -529.16,-186.32 -214.98,-58.43 -528.07,-124.57 -808.09,-195.12 -280.02,-70.56 -526.96,-145.53 -735.32,-240.33 -208.36,-94.81 -378.14,-209.47 -531.37,-327.43 -153.24,-117.96 -289.95,-239.23 -412.32,-384.75 -122.37,-145.52 -230.4,-315.3 -311.98,-442.07 -81.58,-126.78 -136.71,-210.57 -189.62,-292.15 -52.92,-81.58 -103.63,-160.95 -142.21,-243.63 -38.59,-82.69 -65.05,-168.68 -57.33,-194.03 7.71,-25.36 49.61,9.91 101.43,63.93 51.81,54.02 113.54,126.79 202.84,205.06 89.3,78.27 206.15,162.06 370.42,261.28 164.26,99.21 375.92,213.87 583.18,308.68 207.26,94.81 410.11,169.77 619.58,227.1 209.46,57.33 425.53,97.01 622.87,138.91 197.33,41.89 375.93,85.98 599.72,154.33 223.79,68.35 492.79,160.96 735.33,252.46 242.53,91.5 458.6,181.9 668.07,277.81 209.46,95.91 412.3,197.34 610.74,311.99 198.44,114.65 392.47,242.54 597.53,390.27 205.05,147.72 421.12,315.29 600.82,469.63 179.7,154.34 323.01,295.45 435.46,428.85 112.45,133.39 194.03,259.07 282.23,390.26 88.19,131.19 182.99,267.89 287.72,452 104.73,184.1 219.39,415.61 303.18,647.12 83.78,231.51 136.69,463.03 169.77,717.69 33.07,254.66 46.3,532.47 59.53,810.28z"/>
  <path class="fil2 str3" d="M31949.16 5167.12c-26.46,-132.29 -52.91,-264.58 -98.11,-443.18 -45.2,-178.59 -109.14,-403.48 -174.18,-607.43 -65.05,-203.95 -131.19,-386.96 -223.79,-578.78 -92.61,-191.82 -211.68,-392.47 -345.07,-595.31 -133.4,-202.85 -281.12,-407.91 -447.59,-590.91 -166.47,-183 -351.67,-343.96 -537.98,-492.78 -186.31,-148.83 -373.73,-285.54 -566.65,-433.26 -192.93,-147.73 -391.37,-306.48 -572.17,-488.38 -180.8,-181.9 -343.96,-386.95 -490.58,-609.64 -146.63,-222.69 -276.71,-463.02 -346.16,-599.72 -69.46,-136.7 -78.27,-169.78 -39.68,-214.98 38.58,-45.2 124.56,-102.52 245.83,-163.15 121.27,-60.64 277.81,-124.58 383.65,-168.67 105.83,-44.1 160.96,-68.36 222.7,-34.18 61.73,34.17 130.08,126.78 257.96,305.37 127.88,178.59 315.3,443.18 526.97,712.17 211.66,268.99 447.58,542.4 631.69,754.07 184.1,211.66 316.39,361.59 440.97,498.29 124.57,136.7 241.43,260.18 331.83,357.19 90.4,97.01 154.34,167.57 217.18,255.76 62.84,88.19 124.57,194.03 192.93,332.94 68.35,138.9 143.31,310.88 218.28,499.4 74.96,188.51 149.93,393.57 198.44,558.94 48.5,165.36 70.55,291.03 88.19,469.63 17.64,178.59 30.86,410.1 33.07,600.82 2.2,190.72 -6.61,340.65 -33.07,446.48 -26.46,105.84 -70.56,167.57 -114.66,229.31z"/>
  <path class="fil2 str3" d="M28377.33 -1295.35c-709.97,-377.03 -1419.93,-754.07 -1795.86,-946.99 -375.93,-192.93 -417.82,-201.74 -545.7,-217.17 -127.88,-15.44 -341.76,-37.49 -540.19,-62.84 -198.44,-25.36 -381.45,-54.03 -554.53,-88.2 -173.08,-34.18 -336.24,-73.86 -501.6,-125.67 -165.37,-51.82 -332.94,-115.76 -460.82,-183.01 -127.88,-67.25 -216.08,-137.8 -283.32,-190.72 -67.25,-52.92 -113.56,-88.2 -153.24,-117.96 -39.69,-29.77 -72.77,-54.03 -105.84,-78.28 50.71,136.7 101.43,273.41 156.55,401.29 55.12,127.88 114.65,246.95 176.39,352.78 61.73,105.83 125.67,198.44 206.15,310.89 80.48,112.44 177.49,244.74 287.74,366.01 110.24,121.26 233.71,231.5 367.11,335.13 133.39,103.63 276.7,200.64 446.48,294.35 169.77,93.71 366.01,184.1 549.01,252.45 183,68.35 352.78,114.66 612.95,137.81 260.17,23.15 610.75,23.15 897.38,-5.51 286.63,-28.67 509.33,-85.99 705.56,-163.16 196.23,-77.17 366.01,-174.19 535.78,-271.2z"/>
  <path class="fil2 str3" d="M27896.1 558.42c-145.52,-324.12 -291.05,-648.23 -436.57,-972.35 -92.6,8.82 -185.21,17.64 -309.78,22.05 -124.57,4.41 -281.12,4.41 -447.58,5.51 -166.47,1.1 -342.86,3.31 -590.91,-39.68 -248.05,-43 -567.75,-131.2 -783.83,-219.39 -216.08,-88.19 -328.52,-176.39 -403.48,-233.71 -74.97,-57.33 -112.46,-83.79 -126.79,-52.92 -14.33,30.87 -5.51,119.06 22.05,208.36 27.56,89.3 73.87,179.69 138.91,285.53 65.04,105.83 148.83,227.1 237.02,335.14 88.19,108.04 180.8,202.84 275.61,285.53 94.81,82.68 191.82,153.23 309.78,217.18 117.96,63.94 256.87,121.26 413.42,163.16 156.54,41.89 330.72,68.34 535.78,79.37 205.05,11.02 440.97,6.62 640.51,-9.91 199.54,-16.54 362.7,-45.21 525.86,-73.87z"/>
  <path class="fil2 str3" d="M28339.27 1114.03c-83.79,22.05 -167.57,44.1 -282.22,66.15 -114.66,22.05 -260.18,44.09 -424.44,58.42 -164.26,14.33 -347.27,20.95 -557.83,15.44 -210.57,-5.52 -448.69,-23.15 -660.36,-40.79 -211.67,-17.64 -396.88,-35.28 -533.58,-68.35 -136.7,-33.08 -224.9,-81.58 -255.76,-84.89 -30.87,-3.31 -4.41,38.59 50.71,108.04 55.12,69.45 138.91,166.47 233.72,270.1 94.8,103.62 200.64,213.87 293.25,307.58 92.6,93.7 171.97,170.87 261.27,229.3 89.3,58.43 188.51,98.11 300.96,132.29 112.45,34.17 238.13,62.84 401.29,78.28 163.16,15.43 363.8,17.63 561.14,-6.62 197.33,-24.25 391.36,-74.97 584.29,-125.68 192.92,-50.71 384.75,-101.42 520.35,-143.31 135.59,-41.89 214.97,-74.97 294.34,-108.04 -262.38,-229.31 -524.75,-458.61 -787.13,-687.92z"/>
  <path class="fil2 str3" d="M30105.36 2544.99c-114.65,-72.76 -315.3,-196.23 -515.94,-319.7 -121.27,44.1 -242.53,88.19 -381.44,134.5 -138.91,46.3 -295.45,94.8 -472.94,146.62 -177.5,51.81 -375.93,106.93 -550.11,143.31 -174.19,36.38 -324.12,54.02 -457.51,60.64 -133.4,6.61 -250.26,2.2 -304.28,23.15 -54.02,20.94 -45.2,67.25 0,114.66 45.2,47.4 126.78,95.9 229.31,149.92 102.52,54.02 226,113.55 345.06,160.96 119.06,47.4 233.72,82.68 347.27,101.42 113.55,18.74 225.99,20.95 347.26,13.23 121.27,-7.72 251.35,-25.36 406.8,-70.56 155.44,-45.2 336.24,-117.96 499.4,-185.21 163.16,-67.25 308.68,-128.98 418.93,-187.41 110.24,-58.43 185.2,-113.55 260.17,-168.67 -28.66,-22.05 -57.33,-44.1 -171.98,-116.86z"/>
  <path class="fil2 str3" d="M30985.1 3853.58c-90.4,-14.33 -227.1,-60.64 -373.72,-116.86 -146.63,-56.22 -303.17,-122.37 -422.23,-173.08 -119.07,-50.71 -200.65,-85.99 -212.77,-126.78 -12.13,-40.79 45.19,-87.09 101.42,-122.37 56.22,-35.28 111.35,-59.53 190.73,-104.73 79.37,-45.2 182.99,-111.35 245.83,-153.24 62.84,-41.89 84.89,-59.53 130.09,-16.53 45.2,42.99 113.55,146.62 191.82,268.99 78.27,122.37 166.47,263.48 222.7,353.88 56.22,90.4 80.47,130.08 70.55,158.75 -9.92,28.66 -54.02,46.3 -144.42,31.97z"/>
  <path class="fil1 str4" d="M38880.24 2192.94c159.41,-127.81 318.82,-255.61 398.52,-319.51 79.71,-63.91 79.71,-63.91 79.71,-63.91 -718.59,3780.9 -4366.15,6263.37 -8147.04,5544.79 -2878.01,-546.98 -5185.99,-2623.94 -5656.32,-5515.47 171.32,141.04 342.64,282.07 428.3,352.59 85.66,70.52 85.66,70.52 85.66,70.52 180.63,1133.24 894.91,2011.94 1622.18,2751.76 1431.53,1456.23 3483.92,2184.34 5610.23,1925.45 1634.28,-198.98 3146.13,-1039.94 4256.72,-2280.65 596.99,-666.93 1058.96,-1487.64 1322.04,-2465.57z"/>
  <path class="fil0 str0" d="M27993.68 -3891.15c2296.44,-2785.32 6776.14,-2636.03 9061.5,40.19"/>
 </g>
</svg>
